<?xml version="1.0" encoding="iso-8859-1"?>
<!-- Generator: Adobe Illustrator 16.0.0, SVG Export Plug-In . SVG Version: 6.00 Build 0)  -->
<!DOCTYPE svg PUBLIC "-//W3C//DTD SVG 1.1//EN" "http://www.w3.org/Graphics/SVG/1.1/DTD/svg11.dtd">
<svg version="1.1" xmlns="http://www.w3.org/2000/svg" xmlns:xlink="http://www.w3.org/1999/xlink" x="0px" y="0px" width="64px"
	 height="64px" viewBox="0 0 64 64" style="enable-background:new 0 0 64 64;" xml:space="preserve">
<g id="_x31_4_x5F_sword_x5F_fighting">
	<g>
		<g>
			<polyline style="fill:none;stroke:#363F40;stroke-width:2;stroke-linejoin:round;stroke-miterlimit:10;" points="15,43 55,3 
				63,1 61,9 21,49 			"/>
			
				<line style="fill:none;stroke:#363F40;stroke-width:2;stroke-linejoin:round;stroke-miterlimit:10;" x1="12" y1="40" x2="24" y2="52"/>
			
				<line style="fill:none;stroke:#363F40;stroke-width:2;stroke-linejoin:round;stroke-miterlimit:10;" x1="9" y1="43" x2="21" y2="55"/>
			<polyline style="fill:none;stroke:#363F40;stroke-width:2;stroke-linejoin:round;stroke-miterlimit:10;" points="17,51 5,63 
				2,63 1,62 1,59 13,47 			"/>
			
				<line style="fill:none;stroke:#363F40;stroke-width:2;stroke-linejoin:round;stroke-miterlimit:10;" x1="10" y1="50" x2="14" y2="54"/>
			
				<line style="fill:none;stroke:#363F40;stroke-width:2;stroke-linejoin:round;stroke-miterlimit:10;" x1="7" y1="53" x2="11" y2="57"/>
			
				<line style="fill:none;stroke:#363F40;stroke-width:2;stroke-linejoin:round;stroke-miterlimit:10;" x1="4" y1="56" x2="8" y2="60"/>
			
				<line style="fill:none;stroke:#363F40;stroke-width:2;stroke-linejoin:round;stroke-miterlimit:10;" x1="21" y1="43" x2="58" y2="6"/>
		</g>
		<g>
			
				<line style="fill:none;stroke:#363F40;stroke-width:2;stroke-linejoin:round;stroke-miterlimit:10;" x1="33.998" y1="39.998" x2="43" y2="49"/>
			<polyline style="fill:none;stroke:#363F40;stroke-width:2;stroke-linejoin:round;stroke-miterlimit:10;" points="29.998,23.998 
				9,3 1,1 3,9 23.998,29.998 			"/>
			
				<line style="fill:none;stroke:#363F40;stroke-width:2;stroke-linejoin:round;stroke-miterlimit:10;" x1="49" y1="43" x2="39.998" y2="33.998"/>
			
				<line style="fill:none;stroke:#363F40;stroke-width:2;stroke-linejoin:round;stroke-miterlimit:10;" x1="52" y1="40" x2="40" y2="52"/>
			
				<line style="fill:none;stroke:#363F40;stroke-width:2;stroke-linejoin:round;stroke-miterlimit:10;" x1="55" y1="43" x2="43" y2="55"/>
			<polyline style="fill:none;stroke:#363F40;stroke-width:2;stroke-linejoin:round;stroke-miterlimit:10;" points="47,51 59,63 
				62,63 63,62 63,59 51,47 			"/>
			
				<line style="fill:none;stroke:#363F40;stroke-width:2;stroke-linejoin:round;stroke-miterlimit:10;" x1="54" y1="50" x2="50" y2="54"/>
			
				<line style="fill:none;stroke:#363F40;stroke-width:2;stroke-linejoin:round;stroke-miterlimit:10;" x1="57" y1="53" x2="53" y2="57"/>
			
				<line style="fill:none;stroke:#363F40;stroke-width:2;stroke-linejoin:round;stroke-miterlimit:10;" x1="60" y1="56" x2="56" y2="60"/>
			
				<line style="fill:none;stroke:#363F40;stroke-width:2;stroke-linejoin:round;stroke-miterlimit:10;" x1="26.998" y1="26.998" x2="6" y2="6"/>
			
				<line style="fill:none;stroke:#363F40;stroke-width:2;stroke-linejoin:round;stroke-miterlimit:10;" x1="43" y1="43" x2="36.998" y2="36.998"/>
		</g>
	</g>
</g>
<g id="Layer_1">
</g>
</svg>
