<?xml version="1.0" encoding="iso-8859-1"?>
<!-- Generator: Adobe Illustrator 16.0.0, SVG Export Plug-In . SVG Version: 6.00 Build 0)  -->
<!DOCTYPE svg PUBLIC "-//W3C//DTD SVG 1.1//EN" "http://www.w3.org/Graphics/SVG/1.1/DTD/svg11.dtd">
<svg version="1.1" xmlns="http://www.w3.org/2000/svg" xmlns:xlink="http://www.w3.org/1999/xlink" x="0px" y="0px" width="64px"
	 height="64px" viewBox="0 0 64 64" style="enable-background:new 0 0 64 64;" xml:space="preserve">
<g id="_x30_2_x5F_top_x5F_class_x5F_award">
	<g>
		<path style="fill:none;stroke:#363F40;stroke-width:2;stroke-linejoin:round;stroke-miterlimit:10;" d="M34,33c0,0-11-6-11-20
			c0-8,2-12,2-12h28c0,0,2,4,2,11c0,15-11,21-11,21"/>
		<path style="fill:none;stroke:#363F40;stroke-width:2;stroke-linejoin:round;stroke-miterlimit:10;" d="M48,61
			c0,1.104-0.896,2-2,2H32c-1.104,0-2-0.896-2-2v-2c0-1.104,0.896-2,2-2h14c1.104,0,2,0.896,2,2V61z"/>
		<g>
			
				<line style="fill:none;stroke:#363F40;stroke-width:2;stroke-linejoin:round;stroke-miterlimit:10;" x1="48" y1="39" x2="44" y2="39"/>
			<polyline style="fill:none;stroke:#363F40;stroke-width:2;stroke-linejoin:round;stroke-miterlimit:10;" points="24,30 19,35 
				15,35 			"/>
			<g>
				
					<rect x="5" y="35" style="fill:none;stroke:#363F40;stroke-width:2;stroke-linejoin:round;stroke-miterlimit:10;" width="10" height="22"/>
				
					<line style="fill:none;stroke:#363F40;stroke-width:2;stroke-linejoin:round;stroke-miterlimit:10;" x1="5" y1="35" x2="0" y2="35"/>
				
					<line style="fill:none;stroke:#363F40;stroke-width:2;stroke-linejoin:round;stroke-miterlimit:10;" x1="5" y1="57" x2="0" y2="57"/>
				
					<line style="fill:none;stroke:#363F40;stroke-width:2;stroke-linejoin:round;stroke-miterlimit:10;" x1="12" y1="53" x2="10" y2="53"/>
			</g>
			<g>
				<path style="fill:none;stroke:#363F40;stroke-width:2;stroke-linejoin:round;stroke-miterlimit:10;" d="M48,39
					c1.656,0,3,1.343,3,3s-1.344,3-3,3"/>
				
					<line style="fill:none;stroke:#363F40;stroke-width:2;stroke-linejoin:round;stroke-miterlimit:10;" x1="48" y1="45" x2="44" y2="45"/>
				<path style="fill:none;stroke:#363F40;stroke-width:2;stroke-linejoin:round;stroke-miterlimit:10;" d="M31,33h15
					c1.656,0,3,1.343,3,3s-1.344,3-3,3"/>
				<path style="fill:none;stroke:#363F40;stroke-width:2;stroke-linejoin:round;stroke-miterlimit:10;" d="M18,55h3l4,2h20
					c1.656,0,3-1.343,3-3s-1.344-3-3-3"/>
				<path style="fill:none;stroke:#363F40;stroke-width:2;stroke-linejoin:round;stroke-miterlimit:10;" d="M44,51h2
					c1.656,0,3-1.343,3-3s-1.344-3-3-3"/>
			</g>
		</g>
		<polygon style="fill:none;stroke:#363F40;stroke-width:2;stroke-linejoin:round;stroke-miterlimit:10;" points="39,7 41,12 46,12 
			42,15 44,20 39,17 34,20 36,15 32,12 37,12 		"/>
		<path style="fill:none;stroke:#363F40;stroke-width:2;stroke-linejoin:round;stroke-miterlimit:10;" d="M59,13v-3h4v3
			c0,13-14,14-17,19"/>
		<path style="fill:none;stroke:#363F40;stroke-width:2;stroke-linejoin:round;stroke-miterlimit:10;" d="M19,13v-3h-4v3
			c0,13,14,14,17,19"/>
	</g>
</g>
<g id="Layer_1">
</g>
</svg>
