<?xml version="1.0" encoding="iso-8859-1"?>
<!-- Generator: Adobe Illustrator 16.0.0, SVG Export Plug-In . SVG Version: 6.00 Build 0)  -->
<!DOCTYPE svg PUBLIC "-//W3C//DTD SVG 1.1//EN" "http://www.w3.org/Graphics/SVG/1.1/DTD/svg11.dtd">
<svg version="1.1" xmlns="http://www.w3.org/2000/svg" xmlns:xlink="http://www.w3.org/1999/xlink" x="0px" y="0px" width="64px"
	 height="56px" viewBox="0 0 64 56" style="enable-background:new 0 0 64 56;" xml:space="preserve">
<g id="_x30_9_x5F_handshake_x5F_agreement">
	<g>
		<g>
			<g>
				<line style="fill:none;stroke:#363F40;stroke-width:2;stroke-miterlimit:10;" x1="22" y1="15" x2="42" y2="15"/>
				<polyline style="fill:none;stroke:#363F40;stroke-width:2;stroke-linecap:round;stroke-miterlimit:10;" points="55,29 52,32 
					52,34 48,38 				"/>
				<path style="fill:none;stroke:#363F40;stroke-width:2;stroke-linecap:round;stroke-miterlimit:10;" d="M31,38l11,11c0,0,1,1,2,1
					c1.656,0,3-1.344,3-3c0-1-1-2-1-2L35,34"/>
				<path style="fill:none;stroke:#363F40;stroke-width:2;stroke-linecap:round;stroke-miterlimit:10;" d="M41,48c0,0,1,1,1,2
					c0,1.656-1.344,3-3,3c-1,0-2-1-2-1L27,42"/>
				<path style="fill:none;stroke:#363F40;stroke-width:2;stroke-linecap:round;stroke-miterlimit:10;" d="M35,50c0,0,1,1,1,2
					c0,1.656-1.344,3-3,3c-1,0-2-1-2-1L13,36v-3l-4-4"/>
				<path style="fill:none;stroke:#363F40;stroke-width:2;stroke-linecap:round;stroke-miterlimit:10;" d="M18,42c0,0-1,1-2,1
					c-1.656,0-3-1.344-3-3c0-1,1-2,1-2"/>
				<path style="fill:none;stroke:#363F40;stroke-width:2;stroke-linecap:round;stroke-miterlimit:10;" d="M22,46c0,0-1,1-2,1
					c-1.656,0-3-1.344-3-3c0-1,1-2,1-2"/>
				<path style="fill:none;stroke:#363F40;stroke-width:2;stroke-linecap:round;stroke-miterlimit:10;" d="M26,50c0,0-1,1-2,1
					c-1.656,0-3-1.344-3-3c0-1,1-2,1-2"/>
				<path style="fill:none;stroke:#363F40;stroke-width:2;stroke-linecap:round;stroke-miterlimit:10;" d="M30,54c0,0-1,1-2,1
					c-1.656,0-3-1.344-3-3c0-1,1-2,1-2"/>
				<path style="fill:none;stroke:#363F40;stroke-width:2;stroke-linecap:round;stroke-miterlimit:10;" d="M29,15l-6,6c0,0-1,1-1,2
					c0,1.656,1.344,3,3,3c1,0,2-1,2-1l5-5h3v6l13,13c0,0,1,1,1,2c0,1.656-1.344,3-3,3c-1,0-2-1-2-1"/>
				<path style="fill:none;stroke:#363F40;stroke-width:2;stroke-miterlimit:10;" d="M43,25c0,1.656-1.344,3-3,3h-3"/>
				
					<polyline style="fill:none;stroke:#363F40;stroke-width:2;stroke-linecap:round;stroke-linejoin:round;stroke-miterlimit:10;" points="
					63,24 58,29 56,29 40,13 40,11 50,1 				"/>
				
					<polyline style="fill:none;stroke:#363F40;stroke-width:2;stroke-linecap:round;stroke-linejoin:round;stroke-miterlimit:10;" points="
					1,24 6,29 8,29 24,13 24,11 14,1 				"/>
				
					<line style="fill:none;stroke:#363F40;stroke-width:2;stroke-linecap:round;stroke-miterlimit:10;" x1="57" y1="22" x2="59" y2="20"/>
				
					<line style="fill:none;stroke:#363F40;stroke-width:2;stroke-linecap:round;stroke-miterlimit:10;" x1="5" y1="20" x2="7" y2="22"/>
			</g>
			<path style="fill:none;stroke:#363F40;stroke-width:2;stroke-linecap:round;stroke-miterlimit:10;" d="M28,41"/>
			<path style="fill:none;stroke:#363F40;stroke-width:2;stroke-linecap:round;stroke-miterlimit:10;" d="M26,43"/>
		</g>
	</g>
</g>
<g id="Layer_1">
</g>
</svg>
